<?xml version="1.0" encoding="UTF-8"?>
<svg xmlns="http://www.w3.org/2000/svg" xmlns:xlink="http://www.w3.org/1999/xlink"
     width="970.0" height="515.8000000000001" viewBox="0.0 -515.8000000000001 970.0 515.8000000000001">
<defs>
</defs>
<g transform="translate(0 -500.80000000000007)">
<g transform="translate(0.0 0)">
<rect x="46.79625503025804" y="-10" width="58.75462110149191" height="10" fill="darkgrey" stroke="darkgrey" />
<g transform="translate(76.173565581004 0)">
<text x="0" y="0" font-size="10" font-family="monospace" text-anchor="middle">5' LTR</text>
</g>
</g>
<g transform="translate(0.0 0)">
<rect x="120.03068796718873" y="-10" width="139.41459856941685" height="10" fill="lightblue" stroke="lightblue" />
<g transform="translate(189.73798725189715 0)">
<text x="0" y="0" font-size="10" font-family="monospace" text-anchor="middle">gag</text>
</g>
</g>
<g transform="translate(0.0 0)">
<rect x="514.605560482895" y="-10" width="53.64955923643333" height="10" fill="steelblue" stroke="steelblue" />
<g transform="translate(541.4303401011117 0)">
<text x="0" y="0" font-size="10" font-family="monospace" text-anchor="middle">vif</text>
</g>
</g>
<g transform="translate(0.0 0)">
<rect x="824.5292253452672" y="-10" width="8.260918290731183" height="10" fill="plum" stroke="plum" />
<g transform="translate(828.6596844906328 0)">
<text x="0" y="0" font-size="10" font-family="monospace" text-anchor="middle">tat</text>
</g>
</g>
<g transform="translate(0.0 0)">
<rect x="863.2348762130746" y="-10" width="57.54797011520543" height="10" fill="mediumaquamarine" stroke="mediumaquamarine" />
<g transform="translate(892.0088612706772 0)">
<text x="0" y="0" font-size="10" font-family="monospace" text-anchor="middle">nef</text>
</g>
</g>
</g>
<g transform="translate(0 -480.80000000000007)">
<g transform="translate(0.0 0)">
<rect x="587.9328127264632" y="-10" width="20.234608846959304" height="10" fill="plum" stroke="plum" />
<g transform="translate(598.0501171499429 0)">
<text x="0" y="0" font-size="10" font-family="monospace" text-anchor="middle">tat</text>
</g>
</g>
<g transform="translate(0.0 0)">
<rect x="609.374072559709" y="-10" width="23.01918804608215" height="10" fill="red" stroke="red" />
<g transform="translate(620.88366658275 0)">
<text x="0" y="0" font-size="10" font-family="monospace" text-anchor="middle">vpu</text>
</g>
</g>
<g transform="translate(0.0 0)">
<rect x="824.3435867319924" y="-10" width="25.525309325292596" height="10" fill="yellowgreen" stroke="yellowgreen" />
<g transform="translate(837.1062413946388 0)">
<text x="0" y="0" font-size="10" font-family="monospace" text-anchor="middle">rev</text>
</g>
</g>
<g transform="translate(0.0 0)">
<rect x="890.0596558312914" y="-10" width="58.75462110149181" height="10" fill="darkgrey" stroke="darkgrey" />
<g transform="translate(919.4369663820373 0)">
<text x="0" y="0" font-size="10" font-family="monospace" text-anchor="middle">3' LTR</text>
</g>
</g>
</g>
<g transform="translate(0 -460.80000000000007)">
<g transform="translate(0.0 0)">
<rect x="240.23169006265798" y="-10" width="279.4789322852956" height="10" fill="orange" stroke="orange" />
<g transform="translate(379.9711562053058 0)">
<text x="0" y="0" font-size="10" font-family="monospace" text-anchor="middle">pol</text>
</g>
</g>
<g transform="translate(0.0 0)">
<rect x="562.6859613210828" y="-10" width="27.010418231491485" height="10" fill="turquoise" stroke="turquoise" />
<g transform="translate(576.1911704368285 0)">
<text x="0" y="0" font-size="10" font-family="monospace" text-anchor="middle">vpr</text>
</g>
</g>
<g transform="translate(0.0 0)">
<rect x="600.8346963490657" y="-10" width="7.239905917719398" height="10" fill="yellowgreen" stroke="yellowgreen" />
<g transform="translate(604.4546493079254 0)">
<text x="0" y="0" font-size="10" font-family="monospace" text-anchor="middle">rev</text>
</g>
</g>
<g transform="translate(0.0 0)">
<rect x="624.5036195416099" y="-10" width="238.54561805818992" height="10" fill="salmon" stroke="salmon" />
<g transform="translate(743.7764285707049 0)">
<text x="0" y="0" font-size="10" font-family="monospace" text-anchor="middle">env</text>
</g>
</g>
</g>
<g transform="translate(0 -440.80000000000007)">
<g transform="translate(0.0 0)">
<rect x="255.82533357774588" y="-10" width="27.474514764678702" height="10" fill="orange" stroke="orange" />
<g transform="translate(269.56259096008523 0)">
<text x="0" y="0" font-size="10" font-family="monospace" text-anchor="middle">PR</text>
</g>
</g>
<g transform="translate(0.0 0)">
<rect x="283.392667649062" y="-10" width="155.84361584424153" height="10" fill="darkorange" stroke="darkorange" />
<g transform="translate(361.31447557118275 0)">
<text x="0" y="0" font-size="10" font-family="monospace" text-anchor="middle">RT</text>
</g>
</g>
<g transform="translate(0.0 0)">
<rect x="439.32910279994104" y="-10" width="80.38151954801259" height="10" fill="orange" stroke="orange" />
<g transform="translate(479.5198625739473 0)">
<text x="0" y="0" font-size="10" font-family="monospace" text-anchor="middle">INT</text>
</g>
</g>
<g transform="translate(0.0 0)">
<rect x="706.6487059157336" y="-10" width="9.93166581020489" height="10" fill="salmon" stroke="salmon" />
<g transform="translate(711.6145388208361 0)">
<text x="0" y="0" font-size="10" font-family="monospace" text-anchor="middle">V3</text>
</g>
</g>
<g transform="translate(0.0 0)">
<rect x="766.7956166167869" y="-10" width="96.25362098301287" height="10" fill="salmon" stroke="salmon" />
<g transform="translate(814.9224271082933 0)">
<text x="0" y="0" font-size="10" font-family="monospace" text-anchor="middle">GP41</text>
</g>
</g>
</g>
<g transform="translate(0 -420.80000000000007)">
<g transform="translate(0.0 0)">
<rect x="46.70343572362061" y="-10" width="902.1108412091626" height="10" fill="red" stroke="red" />
</g>
<g transform="translate(0.0 0)">
<rect x="45.305278768353446" y="-10" width="370.71132985369326" height="10" fill="yellow" stroke="yellow" />
</g>
<g transform="translate(0.0 0)">
<rect x="416.1164769759944" y="-10" width="47.13786306329291" height="10" fill="yellow" stroke="yellow" />
</g>
<g transform="translate(0.0 0)">
<rect x="572.7100559659166" y="-10" width="378.7007981695057" height="10" fill="yellow" stroke="yellow" />
</g>
<g transform="translate(0.0 0)">
<rect x="46.70343572362061" y="-10" width="384.4931626984696" height="10" fill="lightgray" stroke="lightgray" />
</g>
<g transform="translate(0.0 0)">
<rect x="349.1048114771183" y="-10" width="114.149528562169" height="10" fill="lightgray" stroke="lightgray" />
</g>
<g transform="translate(0.0 0)">
<rect x="572.7100559659166" y="-10" width="376.004352612919" height="10" fill="lightgray" stroke="lightgray" />
</g>
</g>
<g transform="translate(0.0 -422.30000000000007)">
<rect x="498.3430861987957" y="11.5" width="0.0" height="-11.5" fill="transparent" stroke="transparent" />
<g transform="translate(498.3430861987957 0)">
<text x="0" y="0" font-size="10" font-family="monospace" text-anchor="middle">HIV1-A1-RW-KF716472-seed</text>
</g>
</g>
<g transform="translate(0 -392.30000000000007)">
<g transform="translate(0.0 0)">
<path d="M45.305278768353446,-20.0 L409.0166086220467,-20.0" stroke="black" />
<circle cx="230.66094369520007" cy="-10.0" r="10.0" fill="ivory" stroke="black" />
<path d="M416.0166086220467,-20.0 L409.0166086220467,-23.5 L409.0166086220467,-16.5 L416.0166086220467,-20.0" fill="black" />
<text x="230.66094369520007" y="-10.0" font-size="11.0" text-anchor="middle" dy="0.35em">1.1</text>
</g>
<g transform="translate(0.0 0)">
<path d="M416.1164769759944,-20.0 L456.2543400392873,-20.0" stroke="black" />
<circle cx="439.68540850764083" cy="-10.0" r="10.0" fill="ivory" stroke="black" />
<path d="M463.2543400392873,-20.0 L456.2543400392873,-23.5 L456.2543400392873,-16.5 L463.2543400392873,-20.0" fill="black" />
<text x="439.68540850764083" y="-10.0" font-size="11.0" text-anchor="middle" dy="0.35em">3.2</text>
</g>
<g transform="translate(0.0 0)">
<path d="M572.7100559659166,-20.0 L944.4108541354223,-20.0" stroke="black" />
<circle cx="762.0604550506694" cy="-10.0" r="10.0" fill="ivory" stroke="black" />
<path d="M951.4108541354223,-20.0 L944.4108541354223,-23.5 L944.4108541354223,-16.5 L951.4108541354223,-20.0" fill="black" />
<text x="762.0604550506694" y="-10.0" font-size="11.0" text-anchor="middle" dy="0.35em">1.3</text>
</g>
</g>
<g transform="translate(0 -381.30000000000007)">
<g transform="translate(0.0 0)">
<path d="M45.305278768353446,9.5 L409.0166086220467,9.5" stroke="black" />
<path d="M416.0166086220467,9.5 L409.0166086220467,6.0 L409.0166086220467,13.0 L416.0166086220467,9.5" fill="black" />
</g>
<g transform="translate(0.0 0)">
<path d="M572.7100559659166,9.5 L944.4108541354223,9.5" stroke="black" />
<path d="M951.4108541354223,9.5 L944.4108541354223,6.0 L944.4108541354223,13.0 L951.4108541354223,9.5" fill="black" />
</g>
</g>
<g transform="translate(0 -361.30000000000007)">
<g transform="translate(0.0 0)">
<rect x="45.305278768353446" y="-10" width="1.3981569552671615" height="10" fill="yellow" stroke="yellow" />
</g>
<g transform="translate(0.0 0)">
<rect x="46.70343572362061" y="-10" width="384.4931626984696" height="10" fill="lightgrey" stroke="lightgrey" />
<g transform="translate(238.9500170728554 0)">
<text x="0" y="0" font-size="10" font-family="monospace" text-anchor="middle">1.1</text>
</g>
</g>
<g transform="translate(0.0 0)">
<rect x="948.7144085788356" y="-10" width="2.6964455565866956" height="10" fill="yellow" stroke="yellow" />
</g>
<g transform="translate(0.0 0)">
<rect x="572.7100559659166" y="-10" width="376.004352612919" height="10" fill="lightgrey" stroke="lightgrey" />
<g transform="translate(760.712232272376 0)">
<text x="0" y="0" font-size="10" font-family="monospace" text-anchor="middle">1.3</text>
</g>
</g>
</g>
<g transform="translate(0 -350.30000000000007)">
<g transform="translate(0.0 0)">
<path d="M416.1164769759944,9.5 L456.2543400392873,9.5" stroke="black" />
<path d="M463.2543400392873,9.5 L456.2543400392873,6.0 L456.2543400392873,13.0 L463.2543400392873,9.5" fill="black" />
</g>
</g>
<g transform="translate(0 -330.30000000000007)">
<g transform="translate(0.0 0)">
<rect x="349.1048114771183" y="-10" width="114.149528562169" height="10" fill="lightgrey" stroke="lightgrey" />
<g transform="translate(406.17957575820276 0)">
<text x="0" y="0" font-size="10" font-family="monospace" text-anchor="middle">3.2</text>
</g>
</g>
</g>
<g transform="translate(0.0 -320.30000000000007)">
<path d="M23.351717861810304,-0.0 L23.351717861810304,-0.0" stroke="black" />
<path d="M23.351717861810304,-0.0 L23.351717861810304,-3.5 L23.351717861810304,3.5 L23.351717861810304,-0.0" fill="black" />
</g>
<g transform="translate(0 -310.20000000000005)">
<g transform="translate(0.0 0)">
<rect x="21.953560906543142" y="-0.1" width="18.589145864577578" height="0.1" fill="green" stroke="green" />
</g>
<g transform="translate(0.0 0)">
<rect x="59.13185263569831" y="-0.1" width="18.589145864577574" height="0.1" fill="green" stroke="green" />
</g>
<g transform="translate(0.0 0)">
<rect x="96.31014436485347" y="-0.1" width="18.58914586457759" height="0.1" fill="green" stroke="green" />
</g>
<g transform="translate(0.0 0)">
<rect x="133.48843609400862" y="-0.1" width="18.589145864577603" height="0.1" fill="green" stroke="green" />
</g>
<g transform="translate(0.0 0)">
<rect x="170.6667278231638" y="-0.1" width="18.589145864577603" height="0.1" fill="green" stroke="green" />
</g>
<g transform="translate(0.0 0)">
<rect x="207.84501955231897" y="-0.1" width="18.589145864577574" height="0.1" fill="green" stroke="green" />
</g>
<g transform="translate(0.0 0)">
<rect x="245.0233112814741" y="-0.1" width="18.589145864577574" height="0.1" fill="green" stroke="green" />
</g>
<g transform="translate(0.0 0)">
<rect x="282.2016030106293" y="-0.1" width="18.589145864577574" height="0.1" fill="green" stroke="green" />
</g>
<g transform="translate(0.0 0)">
<rect x="319.37989473978445" y="-0.1" width="18.589145864577574" height="0.1" fill="green" stroke="green" />
</g>
<g transform="translate(0.0 0)">
<rect x="356.55818646893965" y="-0.1" width="18.589145864577574" height="0.1" fill="green" stroke="green" />
</g>
<g transform="translate(0.0 0)">
<rect x="393.7364781980948" y="-0.1" width="18.589145864577574" height="0.1" fill="green" stroke="green" />
</g>
<g transform="translate(0.0 0)">
<rect x="430.91476992725" y="-0.1" width="18.589145864577517" height="0.1" fill="green" stroke="green" />
</g>
<g transform="translate(0.0 0)">
<rect x="468.0930616564051" y="-0.1" width="18.58914586457763" height="0.1" fill="green" stroke="green" />
</g>
<g transform="translate(0.0 0)">
<rect x="505.27135338556025" y="-0.1" width="18.58914586457763" height="0.1" fill="green" stroke="green" />
</g>
<g transform="translate(0.0 0)">
<rect x="542.4496451147154" y="-0.1" width="18.58914586457763" height="0.1" fill="green" stroke="green" />
</g>
<g transform="translate(0.0 0)">
<rect x="579.6279368438707" y="-0.1" width="18.58914586457763" height="0.1" fill="green" stroke="green" />
</g>
<g transform="translate(0.0 0)">
<rect x="616.8062285730258" y="-0.1" width="18.589145864577517" height="0.1" fill="green" stroke="green" />
</g>
<g transform="translate(0.0 0)">
<rect x="653.984520302181" y="-0.1" width="18.589145864577517" height="0.1" fill="green" stroke="green" />
</g>
<g transform="translate(0.0 0)">
<rect x="691.1628120313361" y="-0.1" width="18.58914586457763" height="0.1" fill="green" stroke="green" />
</g>
<g transform="translate(0.0 0)">
<rect x="728.3411037604914" y="-0.1" width="18.589145864577517" height="0.1" fill="green" stroke="green" />
</g>
<g transform="translate(0.0 0)">
<rect x="765.5193954896465" y="-0.1" width="18.589145864577517" height="0.1" fill="green" stroke="green" />
</g>
<g transform="translate(0.0 0)">
<rect x="802.6976872188015" y="-0.1" width="18.589145864577745" height="0.1" fill="green" stroke="green" />
</g>
<g transform="translate(0.0 0)">
<rect x="839.8759789479568" y="-0.1" width="18.58914586457763" height="0.1" fill="green" stroke="green" />
</g>
<g transform="translate(0.0 0)">
<rect x="877.0542706771121" y="-0.1" width="18.58914586457763" height="0.1" fill="green" stroke="green" />
</g>
<g transform="translate(0.0 0)">
<rect x="914.2325624062671" y="-0.1" width="18.58914586457763" height="0.1" fill="green" stroke="green" />
</g>
<g transform="translate(0.0 0)">
<rect x="951.4108541354224" y="-0.1" width="18.58914586457763" height="0.1" fill="green" stroke="green" />
</g>
</g>
<g transform="translate(0.0 -300.20000000000005)">
<path d="M23.351717861810304,-0.0 L23.351717861810304,-0.0" stroke="black" />
<path d="M23.351717861810304,-0.0 L23.351717861810304,-3.5 L23.351717861810304,3.5 L23.351717861810304,-0.0" fill="black" />
</g>
<g transform="translate(0.0 -290.20000000000005)">
<rect x="23.351717861810304" y="0" width="0.0" height="0" fill="lightgrey" stroke="lightgrey" />
<g transform="translate(23.351717861810304 0)">
<text x="0" y="0" font-size="12" font-family="monospace" text-anchor="left">discards:</text>
</g>
</g>
<g transform="translate(0.0 -270.20000000000005)">
<rect x="46.70343572362061" y="-10" width="63.91574652649886" height="10" fill="yellow" stroke="yellow" />
<g transform="translate(78.66130898687004 0)">
<text x="0" y="0" font-size="10" font-family="monospace" text-anchor="middle">1.2</text>
</g>
</g>
<g transform="translate(0 -250.20000000000005)">
<g transform="translate(0.0 0)">
<rect x="48.40119774073073" y="-10" width="163.38462705836267" height="10" fill="lightgrey" stroke="lightgrey" />
<g transform="translate(130.09351126991206 0)">
<text x="0" y="0" font-size="10" font-family="monospace" text-anchor="middle">2</text>
</g>
</g>
</g>
<g transform="translate(0.0 -230.20000000000005)">
<rect x="46.70343572362061" y="-10" width="0.8988151855288891" height="10" fill="yellow" stroke="yellow" />
<g transform="translate(47.15284331638505 0)">
<text x="0" y="0" font-size="10" font-family="monospace" text-anchor="middle">3.1</text>
</g>
</g>
<g transform="translate(0 -210.20000000000005)">
<g transform="translate(0.0 0)">
<rect x="274.1036776624298" y="-10" width="83.88941731602972" height="10" fill="lightgrey" stroke="lightgrey" />
<g transform="translate(316.04838632044465 0)">
<text x="0" y="0" font-size="10" font-family="monospace" text-anchor="middle">4</text>
</g>
</g>
</g>
<g transform="translate(0 -190.20000000000005)">
<g transform="translate(0.0 0)">
<rect x="791.0222776954892" y="-10" width="0.7989468315812474" height="10" fill="yellow" stroke="yellow" />
</g>
<g transform="translate(0.0 0)">
<rect x="791.8212245270704" y="-10" width="148.3045056122669" height="10" fill="lightgrey" stroke="lightgrey" />
<g transform="translate(865.9734773332038 0)">
<text x="0" y="0" font-size="10" font-family="monospace" text-anchor="middle">6</text>
</g>
</g>
</g>
<g transform="translate(0 -170.20000000000005)">
<g transform="translate(0.0 0)">
<rect x="673.5770934530475" y="-10" width="0.7989468315812474" height="10" fill="yellow" stroke="yellow" />
</g>
<g transform="translate(0.0 0)">
<rect x="599.5746431778356" y="-10" width="74.00245027521191" height="10" fill="lightgrey" stroke="lightgrey" />
<g transform="translate(636.5758683154415 0)">
<text x="0" y="0" font-size="10" font-family="monospace" text-anchor="middle">7</text>
</g>
</g>
</g>
<g transform="translate(0 -150.20000000000005)">
<g transform="translate(0.0 0)">
<rect x="748.7779639756313" y="-10" width="19.973670789530843" height="10" fill="yellow" stroke="yellow" />
</g>
<g transform="translate(0.0 0)">
<rect x="695.5481313215315" y="-10" width="53.22983265409982" height="10" fill="lightgrey" stroke="lightgrey" />
<g transform="translate(722.1630476485814 0)">
<text x="0" y="0" font-size="10" font-family="monospace" text-anchor="middle">8</text>
</g>
</g>
</g>
<g transform="translate(0.0 -140.20000000000005)">
<path d="M23.351717861810304,-0.0 L23.351717861810304,-0.0" stroke="black" />
<path d="M23.351717861810304,-0.0 L23.351717861810304,-3.5 L23.351717861810304,3.5 L23.351717861810304,-0.0" fill="black" />
</g>
<g transform="translate(0 -130.10000000000002)">
<g transform="translate(0.0 0)">
<rect x="21.953560906543142" y="-0.1" width="18.589145864577578" height="0.1" fill="green" stroke="green" />
</g>
<g transform="translate(0.0 0)">
<rect x="59.13185263569831" y="-0.1" width="18.589145864577574" height="0.1" fill="green" stroke="green" />
</g>
<g transform="translate(0.0 0)">
<rect x="96.31014436485347" y="-0.1" width="18.58914586457759" height="0.1" fill="green" stroke="green" />
</g>
<g transform="translate(0.0 0)">
<rect x="133.48843609400862" y="-0.1" width="18.589145864577603" height="0.1" fill="green" stroke="green" />
</g>
<g transform="translate(0.0 0)">
<rect x="170.6667278231638" y="-0.1" width="18.589145864577603" height="0.1" fill="green" stroke="green" />
</g>
<g transform="translate(0.0 0)">
<rect x="207.84501955231897" y="-0.1" width="18.589145864577574" height="0.1" fill="green" stroke="green" />
</g>
<g transform="translate(0.0 0)">
<rect x="245.0233112814741" y="-0.1" width="18.589145864577574" height="0.1" fill="green" stroke="green" />
</g>
<g transform="translate(0.0 0)">
<rect x="282.2016030106293" y="-0.1" width="18.589145864577574" height="0.1" fill="green" stroke="green" />
</g>
<g transform="translate(0.0 0)">
<rect x="319.37989473978445" y="-0.1" width="18.589145864577574" height="0.1" fill="green" stroke="green" />
</g>
<g transform="translate(0.0 0)">
<rect x="356.55818646893965" y="-0.1" width="18.589145864577574" height="0.1" fill="green" stroke="green" />
</g>
<g transform="translate(0.0 0)">
<rect x="393.7364781980948" y="-0.1" width="18.589145864577574" height="0.1" fill="green" stroke="green" />
</g>
<g transform="translate(0.0 0)">
<rect x="430.91476992725" y="-0.1" width="18.589145864577517" height="0.1" fill="green" stroke="green" />
</g>
<g transform="translate(0.0 0)">
<rect x="468.0930616564051" y="-0.1" width="18.58914586457763" height="0.1" fill="green" stroke="green" />
</g>
<g transform="translate(0.0 0)">
<rect x="505.27135338556025" y="-0.1" width="18.58914586457763" height="0.1" fill="green" stroke="green" />
</g>
<g transform="translate(0.0 0)">
<rect x="542.4496451147154" y="-0.1" width="18.58914586457763" height="0.1" fill="green" stroke="green" />
</g>
<g transform="translate(0.0 0)">
<rect x="579.6279368438707" y="-0.1" width="18.58914586457763" height="0.1" fill="green" stroke="green" />
</g>
<g transform="translate(0.0 0)">
<rect x="616.8062285730258" y="-0.1" width="18.589145864577517" height="0.1" fill="green" stroke="green" />
</g>
<g transform="translate(0.0 0)">
<rect x="653.984520302181" y="-0.1" width="18.589145864577517" height="0.1" fill="green" stroke="green" />
</g>
<g transform="translate(0.0 0)">
<rect x="691.1628120313361" y="-0.1" width="18.58914586457763" height="0.1" fill="green" stroke="green" />
</g>
<g transform="translate(0.0 0)">
<rect x="728.3411037604914" y="-0.1" width="18.589145864577517" height="0.1" fill="green" stroke="green" />
</g>
<g transform="translate(0.0 0)">
<rect x="765.5193954896465" y="-0.1" width="18.589145864577517" height="0.1" fill="green" stroke="green" />
</g>
<g transform="translate(0.0 0)">
<rect x="802.6976872188015" y="-0.1" width="18.589145864577745" height="0.1" fill="green" stroke="green" />
</g>
<g transform="translate(0.0 0)">
<rect x="839.8759789479568" y="-0.1" width="18.58914586457763" height="0.1" fill="green" stroke="green" />
</g>
<g transform="translate(0.0 0)">
<rect x="877.0542706771121" y="-0.1" width="18.58914586457763" height="0.1" fill="green" stroke="green" />
</g>
<g transform="translate(0.0 0)">
<rect x="914.2325624062671" y="-0.1" width="18.58914586457763" height="0.1" fill="green" stroke="green" />
</g>
<g transform="translate(0.0 0)">
<rect x="951.4108541354224" y="-0.1" width="18.58914586457763" height="0.1" fill="green" stroke="green" />
</g>
</g>
<g transform="translate(0.0 -120.10000000000002)">
<path d="M23.351717861810304,-0.0 L23.351717861810304,-0.0" stroke="black" />
<path d="M23.351717861810304,-0.0 L23.351717861810304,-3.5 L23.351717861810304,3.5 L23.351717861810304,-0.0" fill="black" />
</g>
<g transform="translate(0.0 -110.10000000000002)">
<rect x="23.351717861810304" y="0" width="0.0" height="0" fill="lightgrey" stroke="lightgrey" />
<g transform="translate(23.351717861810304 0)">
<text x="0" y="0" font-size="12" font-family="monospace" text-anchor="left">anomaly:</text>
</g>
</g>
<g transform="translate(0 -90.10000000000002)">
<g transform="translate(0.0 0)">
<rect x="46.70343572362061" y="-10" width="251.16891017835093" height="10" fill="yellow" stroke="yellow" />
<g transform="translate(172.28789081279606 0)">
<text x="0" y="0" font-size="10" font-family="monospace" text-anchor="middle">5</text>
</g>
</g>
</g>
<g transform="translate(0.0 -80.10000000000002)">
<path d="M23.351717861810304,-0.0 L23.351717861810304,-0.0" stroke="black" />
<path d="M23.351717861810304,-0.0 L23.351717861810304,-3.5 L23.351717861810304,3.5 L23.351717861810304,-0.0" fill="black" />
</g>
<g transform="translate(0 -70.0)">
<g transform="translate(0.0 0)">
<rect x="21.953560906543142" y="-0.1" width="18.589145864577578" height="0.1" fill="green" stroke="green" />
</g>
<g transform="translate(0.0 0)">
<rect x="59.13185263569831" y="-0.1" width="18.589145864577574" height="0.1" fill="green" stroke="green" />
</g>
<g transform="translate(0.0 0)">
<rect x="96.31014436485347" y="-0.1" width="18.58914586457759" height="0.1" fill="green" stroke="green" />
</g>
<g transform="translate(0.0 0)">
<rect x="133.48843609400862" y="-0.1" width="18.589145864577603" height="0.1" fill="green" stroke="green" />
</g>
<g transform="translate(0.0 0)">
<rect x="170.6667278231638" y="-0.1" width="18.589145864577603" height="0.1" fill="green" stroke="green" />
</g>
<g transform="translate(0.0 0)">
<rect x="207.84501955231897" y="-0.1" width="18.589145864577574" height="0.1" fill="green" stroke="green" />
</g>
<g transform="translate(0.0 0)">
<rect x="245.0233112814741" y="-0.1" width="18.589145864577574" height="0.1" fill="green" stroke="green" />
</g>
<g transform="translate(0.0 0)">
<rect x="282.2016030106293" y="-0.1" width="18.589145864577574" height="0.1" fill="green" stroke="green" />
</g>
<g transform="translate(0.0 0)">
<rect x="319.37989473978445" y="-0.1" width="18.589145864577574" height="0.1" fill="green" stroke="green" />
</g>
<g transform="translate(0.0 0)">
<rect x="356.55818646893965" y="-0.1" width="18.589145864577574" height="0.1" fill="green" stroke="green" />
</g>
<g transform="translate(0.0 0)">
<rect x="393.7364781980948" y="-0.1" width="18.589145864577574" height="0.1" fill="green" stroke="green" />
</g>
<g transform="translate(0.0 0)">
<rect x="430.91476992725" y="-0.1" width="18.589145864577517" height="0.1" fill="green" stroke="green" />
</g>
<g transform="translate(0.0 0)">
<rect x="468.0930616564051" y="-0.1" width="18.58914586457763" height="0.1" fill="green" stroke="green" />
</g>
<g transform="translate(0.0 0)">
<rect x="505.27135338556025" y="-0.1" width="18.58914586457763" height="0.1" fill="green" stroke="green" />
</g>
<g transform="translate(0.0 0)">
<rect x="542.4496451147154" y="-0.1" width="18.58914586457763" height="0.1" fill="green" stroke="green" />
</g>
<g transform="translate(0.0 0)">
<rect x="579.6279368438707" y="-0.1" width="18.58914586457763" height="0.1" fill="green" stroke="green" />
</g>
<g transform="translate(0.0 0)">
<rect x="616.8062285730258" y="-0.1" width="18.589145864577517" height="0.1" fill="green" stroke="green" />
</g>
<g transform="translate(0.0 0)">
<rect x="653.984520302181" y="-0.1" width="18.589145864577517" height="0.1" fill="green" stroke="green" />
</g>
<g transform="translate(0.0 0)">
<rect x="691.1628120313361" y="-0.1" width="18.58914586457763" height="0.1" fill="green" stroke="green" />
</g>
<g transform="translate(0.0 0)">
<rect x="728.3411037604914" y="-0.1" width="18.589145864577517" height="0.1" fill="green" stroke="green" />
</g>
<g transform="translate(0.0 0)">
<rect x="765.5193954896465" y="-0.1" width="18.589145864577517" height="0.1" fill="green" stroke="green" />
</g>
<g transform="translate(0.0 0)">
<rect x="802.6976872188015" y="-0.1" width="18.589145864577745" height="0.1" fill="green" stroke="green" />
</g>
<g transform="translate(0.0 0)">
<rect x="839.8759789479568" y="-0.1" width="18.58914586457763" height="0.1" fill="green" stroke="green" />
</g>
<g transform="translate(0.0 0)">
<rect x="877.0542706771121" y="-0.1" width="18.58914586457763" height="0.1" fill="green" stroke="green" />
</g>
<g transform="translate(0.0 0)">
<rect x="914.2325624062671" y="-0.1" width="18.58914586457763" height="0.1" fill="green" stroke="green" />
</g>
<g transform="translate(0.0 0)">
<rect x="951.4108541354224" y="-0.1" width="18.58914586457763" height="0.1" fill="green" stroke="green" />
</g>
</g>
<g transform="translate(0.0 -60.0)">
<path d="M23.351717861810304,-0.0 L23.351717861810304,-0.0" stroke="black" />
<path d="M23.351717861810304,-0.0 L23.351717861810304,-3.5 L23.351717861810304,3.5 L23.351717861810304,-0.0" fill="black" />
</g>
<g transform="translate(0.0 -50.0)">
<rect x="23.351717861810304" y="0" width="0.0" height="0" fill="lightgrey" stroke="lightgrey" />
<g transform="translate(23.351717861810304 0)">
<text x="0" y="0" font-size="12" font-family="monospace" text-anchor="left">unknown:</text>
</g>
</g>
<g transform="translate(0 -30.0)">
<g transform="translate(0.0 0)">
<rect x="46.70343572362061" y="-10" width="46.93812635539759" height="10" fill="yellow" stroke="yellow" />
<g transform="translate(70.1724989013194 0)">
<text x="0" y="0" font-size="10" font-family="monospace" text-anchor="middle">9</text>
</g>
</g>
</g>
<g transform="translate(0 -10.0)">
<g transform="translate(0.0 0)">
<rect x="46.70343572362061" y="-10" width="56.72522504226773" height="10" fill="yellow" stroke="yellow" />
<g transform="translate(75.06604824475447 0)">
<text x="0" y="0" font-size="10" font-family="monospace" text-anchor="middle">10</text>
</g>
</g>
</g>
</svg>