<?xml version="1.0" encoding="UTF-8"?>
<svg xmlns="http://www.w3.org/2000/svg" xmlns:xlink="http://www.w3.org/1999/xlink"
     width="970.0" height="84.5" viewBox="0.0 -84.5 970.0 84.5">
<defs>
</defs>
<g transform="translate(0 -69.5)">
<g transform="translate(0.0 0)">
<rect x="15.317664340800587" y="-10" width="306.3532868160117" height="10" fill="red" stroke="red" />
</g>
<g transform="translate(0.0 0)">
<rect x="65.18912963643041" y="-10" width="192.36136614028644" height="10" fill="yellow" stroke="yellow" />
</g>
<g transform="translate(0.0 0)">
<rect x="79.43811972089607" y="-10" width="163.86338597135511" height="10" fill="lightgray" stroke="lightgray" />
</g>
</g>
<g transform="translate(0.0 -71.0)">
<rect x="170.98788101358795" y="11.5" width="0.0" height="-11.5" fill="transparent" stroke="transparent" />
<g transform="translate(170.98788101358795 0)">
<text x="0" y="0" font-size="10" font-family="monospace" text-anchor="middle">Reference X</text>
</g>
</g>
<g transform="translate(0 -41.0)">
<g transform="translate(0.0 0)">
<path d="M65.18912963643041,-20.0 L250.55049577671684,-20.0" stroke="black" />
<circle cx="161.3698127065736" cy="-10.0" r="10.0" fill="ivory" stroke="black" />
<path d="M257.55049577671684,-20.0 L250.55049577671684,-23.5 L250.55049577671684,-16.5 L257.55049577671684,-20.0" fill="black" />
<text x="161.3698127065736" y="-10.0" font-size="11.0" text-anchor="middle" dy="0.35em">1</text>
</g>
</g>
<g transform="translate(0 -30.0)">
<g transform="translate(0.0 0)">
<path d="M65.18912963643041,9.5 L250.55049577671684,9.5" stroke="black" />
<path d="M257.55049577671684,9.5 L250.55049577671684,6.0 L250.55049577671684,13.0 L257.55049577671684,9.5" fill="black" />
</g>
</g>
<g transform="translate(0 -10.0)">
<g transform="translate(0.0 0)">
<rect x="65.18912963643041" y="-10" width="14.24899008446566" height="10" fill="yellow" stroke="yellow" />
</g>
<g transform="translate(0.0 0)">
<rect x="243.30150569225117" y="-10" width="14.248990084465674" height="10" fill="yellow" stroke="yellow" />
</g>
<g transform="translate(0.0 0)">
<rect x="79.43811972089607" y="-10" width="163.86338597135511" height="10" fill="lightgrey" stroke="lightgrey" />
<g transform="translate(161.3698127065736 0)">
<text x="0" y="0" font-size="10" font-family="monospace" text-anchor="middle">1</text>
</g>
</g>
</g>
</svg>