<?xml version="1.0" encoding="UTF-8"?>
<svg xmlns="http://www.w3.org/2000/svg" xmlns:xlink="http://www.w3.org/1999/xlink"
     width="970.0" height="115.5" viewBox="0.0 -115.5 970.0 115.5">
<defs>
</defs>
<g transform="translate(0 -100.5)">
<g transform="translate(0.0 0)">
<rect x="15.317664340800587" y="-10" width="306.3532868160117" height="10" fill="red" stroke="red" />
</g>
<g transform="translate(0.0 0)">
<rect x="65.18912963643041" y="-10" width="64.12045538009548" height="10" fill="yellow" stroke="yellow" />
</g>
<g transform="translate(0.0 0)">
<rect x="207.679030481087" y="-10" width="49.87146529562983" height="10" fill="yellow" stroke="yellow" />
</g>
<g transform="translate(0.0 0)">
<rect x="79.43811972089607" y="-10" width="35.622475211164144" height="10" fill="lightgray" stroke="lightgray" />
</g>
<g transform="translate(0.0 0)">
<rect x="221.92802056555269" y="-10" width="21.373485126698483" height="10" fill="lightgray" stroke="lightgray" />
</g>
</g>
<g transform="translate(0.0 -102.0)">
<rect x="170.98788101358795" y="11.5" width="0.0" height="-11.5" fill="transparent" stroke="transparent" />
<g transform="translate(170.98788101358795 0)">
<text x="0" y="0" font-size="10" font-family="monospace" text-anchor="middle">Reference X</text>
</g>
</g>
<g transform="translate(0 -72.0)">
<g transform="translate(0.0 0)">
<path d="M65.18912963643041,-20.0 L122.30958501652589,-20.0" stroke="black" />
<circle cx="97.24935732647815" cy="-10.0" r="10.0" fill="ivory" stroke="black" />
<path d="M129.3095850165259,-20.0 L122.30958501652589,-23.5 L122.30958501652589,-16.5 L129.3095850165259,-20.0" fill="black" />
<text x="97.24935732647815" y="-10.0" font-size="11.0" text-anchor="middle" dy="0.35em">1</text>
</g>
<g transform="translate(0.0 0)">
<path d="M207.679030481087,-20.0 L250.55049577671684,-20.0" stroke="black" />
<circle cx="232.61476312890193" cy="-10.0" r="10.0" fill="ivory" stroke="black" />
<path d="M257.55049577671684,-20.0 L250.55049577671684,-23.5 L250.55049577671684,-16.5 L257.55049577671684,-20.0" fill="black" />
<text x="232.61476312890193" y="-10.0" font-size="11.0" text-anchor="middle" dy="0.35em">2</text>
</g>
</g>
<g transform="translate(0 -61.0)">
<g transform="translate(0.0 0)">
<path d="M65.18912963643041,9.5 L122.30958501652589,9.5" stroke="black" />
<path d="M129.3095850165259,9.5 L122.30958501652589,6.0 L122.30958501652589,13.0 L129.3095850165259,9.5" fill="black" />
</g>
</g>
<g transform="translate(0 -41.0)">
<g transform="translate(0.0 0)">
<rect x="65.18912963643041" y="-10" width="14.24899008446566" height="10" fill="yellow" stroke="yellow" />
</g>
<g transform="translate(0.0 0)">
<rect x="115.06059493206021" y="-10" width="14.248990084465674" height="10" fill="yellow" stroke="yellow" />
</g>
<g transform="translate(0.0 0)">
<rect x="79.43811972089607" y="-10" width="35.622475211164144" height="10" fill="lightgrey" stroke="lightgrey" />
<g transform="translate(97.24935732647813 0)">
<text x="0" y="0" font-size="10" font-family="monospace" text-anchor="middle">1</text>
</g>
</g>
</g>
<g transform="translate(0 -30.0)">
<g transform="translate(0.0 0)">
<path d="M207.679030481087,9.5 L250.55049577671684,9.5" stroke="black" />
<path d="M257.55049577671684,9.5 L250.55049577671684,6.0 L250.55049577671684,13.0 L257.55049577671684,9.5" fill="black" />
</g>
</g>
<g transform="translate(0 -10.0)">
<g transform="translate(0.0 0)">
<rect x="207.679030481087" y="-10" width="14.248990084465674" height="10" fill="yellow" stroke="yellow" />
</g>
<g transform="translate(0.0 0)">
<rect x="243.30150569225117" y="-10" width="14.248990084465674" height="10" fill="yellow" stroke="yellow" />
</g>
<g transform="translate(0.0 0)">
<rect x="221.92802056555269" y="-10" width="21.373485126698483" height="10" fill="lightgrey" stroke="lightgrey" />
<g transform="translate(232.61476312890193 0)">
<text x="0" y="0" font-size="10" font-family="monospace" text-anchor="middle">2</text>
</g>
</g>
</g>
</svg>