<?xml version="1.0" encoding="UTF-8"?>
<svg xmlns="http://www.w3.org/2000/svg" xmlns:xlink="http://www.w3.org/1999/xlink"
     width="970.0" height="84.5" viewBox="0.0 -84.5 970.0 84.5">
<defs>
</defs>
<g transform="translate(0 -69.5)">
<g transform="translate(0.0 0)">
<rect x="11.781376518218623" y="-10" width="235.62753036437246" height="10" fill="red" stroke="red" />
</g>
<g transform="translate(0.0 0)">
<rect x="74.61538461538461" y="-10" width="109.95951417004048" height="10" fill="yellow" stroke="yellow" />
</g>
<g transform="translate(0.0 0)">
<rect x="82.46963562753037" y="-10" width="78.54251012145748" height="10" fill="lightgray" stroke="lightgray" />
</g>
</g>
<g transform="translate(0.0 -71.0)">
<rect x="125.66801619433198" y="11.5" width="0.0" height="-11.5" fill="transparent" stroke="transparent" />
<g transform="translate(125.66801619433198 0)">
<text x="0" y="0" font-size="10" font-family="monospace" text-anchor="middle">Reference X</text>
</g>
</g>
<g transform="translate(0 -41.0)">
<g transform="translate(0.0 0)">
<path d="M74.61538461538461,-20.0 L177.5748987854251,-20.0" stroke="black" />
<circle cx="129.59514170040484" cy="-10.0" r="10.0" fill="ivory" stroke="black" />
<path d="M184.5748987854251,-20.0 L177.5748987854251,-23.5 L177.5748987854251,-16.5 L184.5748987854251,-20.0" fill="black" />
<text x="129.59514170040484" y="-10.0" font-size="11.0" text-anchor="middle" dy="0.35em">1</text>
</g>
</g>
<g transform="translate(0 -30.0)">
<g transform="translate(0.0 0)">
<path d="M74.61538461538461,9.5 L177.5748987854251,9.5" stroke="black" />
<path d="M184.5748987854251,9.5 L177.5748987854251,6.0 L177.5748987854251,13.0 L184.5748987854251,9.5" fill="black" />
</g>
</g>
<g transform="translate(0 -10.0)">
<g transform="translate(0.0 0)">
<rect x="74.61538461538461" y="-10" width="7.8542510121457525" height="10" fill="yellow" stroke="yellow" />
</g>
<g transform="translate(0.0 0)">
<rect x="161.01214574898785" y="-10" width="23.562753036437243" height="10" fill="yellow" stroke="yellow" />
</g>
<g transform="translate(0.0 0)">
<rect x="82.46963562753037" y="-10" width="78.54251012145748" height="10" fill="lightgrey" stroke="lightgrey" />
<g transform="translate(121.7408906882591 0)">
<text x="0" y="0" font-size="10" font-family="monospace" text-anchor="middle">1</text>
</g>
</g>
</g>
</svg>